<svg width="145" height="19" viewBox="0 0 145 19" fill="none" xmlns="http://www.w3.org/2000/svg">
<path d="M144.977 8.40234H139.656V18.0234H136.574V8.40234H132.613V5.35547H136.574V1.21875H139.656V5.35547H144.977V8.40234Z" fill="white"/>
<path d="M131.406 9.55078C131.406 9.97266 131.332 10.4297 131.184 10.9219C131.035 11.4062 130.793 11.8594 130.457 12.2812C130.129 12.6953 129.695 13.043 129.156 13.3242C128.625 13.6055 127.977 13.7461 127.211 13.7461H121.715V10.8516H127.211C127.625 10.8516 127.945 10.7266 128.172 10.4766C128.398 10.2188 128.512 9.90234 128.512 9.52734C128.512 9.12891 128.383 8.81641 128.125 8.58984C127.875 8.36328 127.57 8.25 127.211 8.25H121.715C121.301 8.25 120.98 8.37891 120.754 8.63672C120.527 8.88672 120.414 9.19922 120.414 9.57422V13.8281C120.414 14.2344 120.539 14.5508 120.789 14.7773C121.047 15.0039 121.363 15.1172 121.738 15.1172H127.211V18.0234H121.715C121.293 18.0234 120.836 17.9492 120.344 17.8008C119.859 17.6523 119.406 17.4141 118.984 17.0859C118.57 16.75 118.223 16.3164 117.941 15.7852C117.66 15.2461 117.52 14.5938 117.52 13.8281V9.55078C117.52 9.12891 117.594 8.67578 117.742 8.19141C117.891 7.69922 118.129 7.24609 118.457 6.83203C118.793 6.41016 119.227 6.05859 119.758 5.77734C120.297 5.49609 120.949 5.35547 121.715 5.35547H127.211C127.633 5.35547 128.086 5.42969 128.57 5.57812C129.062 5.72656 129.516 5.96875 129.93 6.30469C130.352 6.63281 130.703 7.06641 130.984 7.60547C131.266 8.13672 131.406 8.78516 131.406 9.55078Z" fill="white"/>
<path d="M114.66 16.7227C114.66 16.9414 114.617 17.1445 114.531 17.332C114.453 17.5195 114.344 17.6836 114.203 17.8242C114.07 17.957 113.91 18.0625 113.723 18.1406C113.535 18.2188 113.336 18.2578 113.125 18.2578C112.938 18.2578 112.746 18.2227 112.551 18.1524C112.363 18.082 112.195 17.9688 112.047 17.8125L100.914 6.18752V18.0235H97.8672V2.51955C97.8672 2.20705 97.9531 1.9258 98.125 1.6758C98.3047 1.41798 98.5312 1.22658 98.8047 1.10158C99.0938 0.984391 99.3906 0.957047 99.6953 1.01955C100 1.07423 100.262 1.21486 100.48 1.44142L111.613 13.0547V1.21877H114.66V16.7227Z" fill="white"/>
<path d="M90.8555 18.0234H87.8086V10.9922C87.8086 10.5938 87.7383 10.2383 87.5977 9.92578C87.4648 9.60547 87.2812 9.33203 87.0469 9.10547C86.8125 8.87891 86.5352 8.70703 86.2148 8.58984C85.9023 8.46484 85.5625 8.40234 85.1953 8.40234H79.8633V18.0234H76.8164V6.86719C76.8164 6.65625 76.8555 6.46094 76.9336 6.28125C77.0117 6.09375 77.1211 5.93359 77.2617 5.80078C77.4023 5.66016 77.5664 5.55078 77.7539 5.47266C77.9414 5.39453 78.1406 5.35547 78.3516 5.35547H85.2188C85.6016 5.35547 86.0039 5.39844 86.4258 5.48438C86.8555 5.57031 87.2773 5.71094 87.6914 5.90625C88.1133 6.09375 88.5117 6.33594 88.8867 6.63281C89.2695 6.92188 89.6055 7.27734 89.8945 7.69922C90.1914 8.11328 90.4258 8.59375 90.5977 9.14062C90.7695 9.6875 90.8555 10.3047 90.8555 10.9922V18.0234Z" fill="white"/>
<path d="M74.2148 13.8281C74.2148 14.25 74.1406 14.707 73.9922 15.1992C73.8438 15.6836 73.6016 16.1367 73.2656 16.5586C72.9375 16.9727 72.5039 17.3203 71.9648 17.6016C71.4336 17.8828 70.7852 18.0234 70.0195 18.0234H64.5234C64.1016 18.0234 63.6445 17.9492 63.1523 17.8008C62.668 17.6523 62.2148 17.4141 61.793 17.0859C61.3789 16.75 61.0312 16.3164 60.75 15.7852C60.4688 15.2461 60.3281 14.5938 60.3281 13.8281C60.3281 13.4062 60.4023 12.9492 60.5508 12.457C60.6992 11.9648 60.9375 11.5117 61.2656 11.0977C61.6016 10.6758 62.0352 10.3242 62.5664 10.043C63.1055 9.76172 63.7578 9.62109 64.5234 9.62109H70.0195V12.5273H64.5234C64.1094 12.5273 63.7891 12.6562 63.5625 12.9141C63.3359 13.1641 63.2227 13.4766 63.2227 13.8516C63.2227 14.25 63.3516 14.5625 63.6094 14.7891C63.875 15.0078 64.1875 15.1172 64.5469 15.1172H70.0195C70.4336 15.1172 70.7539 14.9922 70.9805 14.7422C71.207 14.4922 71.3203 14.1797 71.3203 13.8047V9.55078C71.3203 9.15234 71.1953 8.83594 70.9453 8.60156C70.7031 8.36719 70.3945 8.25 70.0195 8.25H63.3281V5.35547H70.0195C70.4414 5.35547 70.8945 5.42969 71.3789 5.57812C71.8711 5.72656 72.3242 5.96875 72.7383 6.30469C73.1602 6.63281 73.5117 7.06641 73.793 7.60547C74.0742 8.13672 74.2148 8.78516 74.2148 9.55078V13.8281Z" fill="white"/>
<path d="M60.5977 5.35547C60.1133 6.44141 59.5898 7.51172 59.0273 8.56641C58.4648 9.61328 57.875 10.6055 57.2578 11.543C56.6484 12.4805 56.0234 13.3477 55.3828 14.1445C54.7422 14.9336 54.1055 15.6172 53.4727 16.1953C52.8477 16.7656 52.2344 17.2148 51.6328 17.543C51.0391 17.8633 50.4766 18.0234 49.9453 18.0234C49.7266 18.0234 49.5234 17.9844 49.3359 17.9062C49.1484 17.8281 48.9844 17.7227 48.8438 17.5898C48.7031 17.4492 48.5938 17.2852 48.5156 17.0977C48.4375 16.9102 48.3984 16.707 48.3984 16.4883V10.8047L42.3516 17.5664C42.1953 17.7227 42.0234 17.8398 41.8359 17.918C41.6562 17.9883 41.4688 18.0234 41.2734 18.0234C41.0625 18.0234 40.8633 17.9844 40.6758 17.9062C40.4961 17.8281 40.3359 17.7227 40.1953 17.5898C40.0547 17.4492 39.9414 17.2852 39.8555 17.0977C39.7773 16.9102 39.7383 16.707 39.7383 16.4883V5.35547H42.7852V12.5742L48.8555 5.78906C49.0742 5.57031 49.332 5.43359 49.6289 5.37891C49.9336 5.31641 50.2305 5.34766 50.5195 5.47266C50.8086 5.58984 51.0352 5.77734 51.1992 6.03516C51.3711 6.28516 51.457 6.5625 51.457 6.86719V14.1094C52.1133 13.4766 52.707 12.8086 53.2383 12.1055C53.7695 11.4023 54.2617 10.6797 54.7148 9.9375C55.1758 9.1875 55.6055 8.42969 56.0039 7.66406C56.4102 6.89062 56.8047 6.12109 57.1875 5.35547H60.5977Z" fill="white"/>
<path d="M36.9492 18.0234H33.9023V9.62109C33.9023 9.22266 33.8008 8.92188 33.5977 8.71875C33.3945 8.50781 33.0898 8.40234 32.6836 8.40234H27.1875V5.35547H32.6836C32.9727 5.35547 33.2773 5.39062 33.5977 5.46094C33.918 5.52344 34.2344 5.625 34.5469 5.76562C34.8672 5.90625 35.1719 6.08984 35.4609 6.31641C35.75 6.53516 36.0039 6.80469 36.2227 7.125C36.4414 7.4375 36.6172 7.80078 36.75 8.21484C36.8828 8.62891 36.9492 9.09766 36.9492 9.62109V18.0234ZM25.957 18.0234H22.9102V0H25.957V18.0234Z" fill="white"/>
<path d="M21.1523 18.0234H16.7578L10.6172 12.0938C10.2734 11.7812 10.1133 11.3906 10.1367 10.9219C10.1523 10.7031 10.207 10.5 10.3008 10.3125C10.4023 10.1172 10.5391 9.95312 10.7109 9.82031L16.2773 5.33203H21.1523L13.9805 11.1094L21.1523 18.0234ZM9.36328 18.0234H6.31641V0H9.36328V18.0234Z" fill="white"/>
<path d="M3.04688 18.0234H0V1.21875H3.04688V18.0234Z" fill="white"/>
<path d="M94.5 18C95.8807 18 97 16.8807 97 15.5C97 14.1193 95.8807 13 94.5 13C93.1193 13 92 14.1193 92 15.5C92 16.8807 93.1193 18 94.5 18Z" fill="white"/>
</svg>
